<?xml version="1.0" encoding="utf-8"?>
<!-- Generator: Adobe Illustrator 22.1.0, SVG Export Plug-In . SVG Version: 6.00 Build 0)  -->
<svg version="1.1" id="Слой_1" xmlns="http://www.w3.org/2000/svg" xmlns:xlink="http://www.w3.org/1999/xlink" x="0px" y="0px"
	 viewBox="0 0 74.8 74.6" style="enable-background:new 0 0 74.8 74.6;" xml:space="preserve">
<circle id="Ellipse_20" cx="9.9" cy="64.7" r="1.3"/>
<path id="Path_121" d="M60.1,20.4c0.1,0,0.3,0,0.4-0.1c3.6-1.2,6.5-3.9,7.9-7.5l0.2-0.6c0.2-0.6-0.1-1.3-0.7-1.5
	c-0.6-0.2-1.3,0.1-1.5,0.7l-0.2,0.6c-1,2.7-3.1,4.9-5.9,5.9l-0.6,0.2c-0.6,0.2-0.9,0.9-0.7,1.5C59.1,20.1,59.6,20.4,60.1,20.4
	L60.1,20.4z M72.9,61.8c0,0-37-33.7-37-33.7L5.5,0.6C4.5-0.3,3-0.2,2.1,0.7L0.7,2c-0.8,0.8-1,2.1-0.4,3.1l12.9,21.3
	c0,0,0,0.1,0.1,0.1c1.7,2.4,4.2,4.2,7,5.2l9,3.5l32.6,37.7c1.1,1.2,2.7,1.9,4.4,1.9h0.1c4.2,0,8.5-4.2,8.4-8.4
	C74.8,64.5,74.1,62.9,72.9,61.8z M29.7,32.7l-8.6-3.3c-2.4-0.8-4.4-2.3-5.9-4.3L2.4,3.8c0-0.1,0-0.1,0-0.2l0,0l1.3-1.3
	c0.1-0.1,0.2-0.1,0.2,0L33.4,29L29.7,32.7z M65.6,65.5c-0.5,0.5-1.4,0.5-1.9,0c-0.5-0.5-0.5-1.3,0-1.8c0,0,0,0,0,0
	c0.5-0.5,1.4-0.5,1.9,0C66.2,64.2,66.2,65,65.6,65.5C65.7,65.5,65.7,65.5,65.6,65.5z"/>
<path id="Path_122" d="M35.5,45.9L28,37.1l0,0L1.9,61.9C0.7,63,0,64.6,0,66.2c-0.1,4.1,4.2,8.4,8.3,8.4h0.1c1.6,0,3.2-0.7,4.3-1.8
	l24.2-25.3L35.5,45.9L35.5,45.9z M49.4,34.3c0.9-1,0.9-2.5,0-3.4l-0.1-0.1l2.9-2.9c0.6-0.6,1.5-0.9,2.3-0.8
	c4.5,0.8,10.1-1.5,14.4-5.8c6.2-6.2,7.8-14.7,3.5-18.9s-12.8-2.7-19,3.5c-4.3,4.3-6.5,9.8-5.8,14.3c0.1,0.8-0.2,1.7-0.8,2.3L44,25.4
	l-0.1-0.1c-0.9-1-2.5-1-3.5,0l-2,1.9l9.5,8.7L49.4,34.3z M45.6,27.1l2.9-2.9c1.1-1.1,1.7-2.7,1.4-4.3c-0.6-3.7,1.4-8.6,5.1-12.3
	C60.4,2.3,67.4,0.7,70.7,4s1.8,10.3-3.5,15.6c-3.7,3.7-8.6,5.7-12.3,5.1c-1.6-0.3-3.2,0.3-4.3,1.4l-2.9,2.9L45.6,27.1z"/>
</svg>
