<svg xmlns="http://www.w3.org/2000/svg" width="34.267" height="34.267" viewBox="0 0 34.267 34.267">
  <g id="Icon_feather-instagram" data-name="Icon feather-instagram" transform="translate(1.5 1.5)">
    <path id="Path_35" data-name="Path 35" d="M10.817,3H26.45a7.817,7.817,0,0,1,7.817,7.817V26.45a7.817,7.817,0,0,1-7.817,7.817H10.817A7.817,7.817,0,0,1,3,26.45V10.817A7.817,7.817,0,0,1,10.817,3Z" transform="translate(-3 -3)" fill="none" stroke="#000" stroke-linecap="round" stroke-linejoin="round" stroke-width="3"/>
    <path id="Path_36" data-name="Path 36" d="M24.5,17.271A6.253,6.253,0,1,1,19.235,12,6.253,6.253,0,0,1,24.5,17.271Z" transform="translate(-2.617 -2.623)" fill="none" stroke="#000" stroke-linecap="round" stroke-linejoin="round" stroke-width="3"/>
    <path id="Path_37" data-name="Path 37" d="M26.25,9.75h0" transform="translate(-2.018 -2.715)" fill="none" stroke="#000" stroke-linecap="round" stroke-linejoin="round" stroke-width="3"/>
  </g>
</svg>
