<?xml version="1.0" encoding="utf-8"?>
<!-- Generator: Adobe Illustrator 22.1.0, SVG Export Plug-In . SVG Version: 6.00 Build 0)  -->
<svg version="1.1" id="Слой_1" xmlns="http://www.w3.org/2000/svg" xmlns:xlink="http://www.w3.org/1999/xlink" x="0px" y="0px"
	 viewBox="0 0 415 161.3" style="enable-background:new 0 0 415 161.3;" xml:space="preserve">
<style type="text/css">
	.st0{enable-background:new    ;}
	.st1{fill:none;stroke:#000000;stroke-width:2;}
</style>
<g class="st0">
	<path class="st1" d="M1.4,14.3h14.3l28.1,77.6h0.4c-0.1-1.8-0.3-3.8-0.5-6c-0.2-2.2-0.4-4.7-0.6-7.6c-0.2-2.8-0.3-6-0.5-9.6
		s-0.2-7.6-0.2-12.1V14.3h15.7v115.9H43.7l-28-75.5h-0.5c0.1,2,0.3,4.2,0.5,6.6c0.2,2.4,0.4,5.2,0.6,8.4c0.2,3.2,0.3,7,0.5,11.2
		C17,85.2,17,90.3,17,96.2v34.1H1.4V14.3z"/>
	<path class="st1" d="M99.3,131.3c-4,0-7.6-0.7-10.7-2.2c-3.1-1.5-5.7-3.8-7.8-7c-2.1-3.2-3.7-7.2-4.8-12.2
		c-1.1-5-1.6-10.9-1.6-17.9V74.3c0-5.9,0.4-11,1.3-15.2c0.9-4.2,2-7.8,3.5-10.7c1.4-2.9,3.1-5.1,5-6.8c1.9-1.7,3.8-3,5.8-3.8
		c2-0.9,4-1.4,5.9-1.7c2-0.2,3.8-0.4,5.5-0.4c3.1,0,6,0.5,8.9,1.4c2.9,0.9,5.4,2.5,7.5,4.8c2.2,2.2,3.9,5.2,5.2,9
		c1.3,3.8,1.9,8.4,1.9,14c0,1.9-0.1,3.8-0.2,5.8c-0.1,1.9-0.3,3.9-0.4,5.7c-0.2,1.9-0.4,3.7-0.7,5.5c-0.3,1.8-0.6,3.4-0.9,4.9h-31
		v9.5c0,4.1,0.2,7.5,0.5,10.3c0.3,2.8,0.8,5,1.6,6.7c0.7,1.7,1.8,2.9,3.1,3.7c1.3,0.7,2.9,1.1,4.9,1.1c1,0,2.1-0.2,3.1-0.6
		c1-0.4,1.9-1.1,2.6-2.1c0.7-1,1.3-2.3,1.8-4c0.5-1.7,0.7-3.7,0.7-6.1v-2.9h14.3v3.6c0,8.9-2.1,15.3-6.3,19.4
		C113.5,129.2,107.4,131.3,99.3,131.3z M108.8,75.2c0-0.5,0.1-1.2,0.1-2c0-0.8,0.1-1.7,0.1-2.6c0-0.9,0-1.8,0-2.7c0-0.9,0-1.6,0-2.3
		c0-6.2-0.7-10.6-2.2-13.3c-1.4-2.7-3.6-4.1-6.4-4.1c-1.5,0-2.8,0.4-3.9,1.1c-1.1,0.7-2.1,1.9-2.8,3.5c-0.7,1.7-1.3,3.8-1.6,6.5
		c-0.4,2.7-0.5,6.1-0.5,10.1v5.7H108.8z"/>
	<path class="st1" d="M153.4,136.6c0,4,0.7,6.9,2.2,8.6c1.5,1.7,3.8,2.5,6.9,2.5c1.3,0,2.5-0.2,3.7-0.6c1.2-0.4,2.2-1.1,3.1-2.1
		c0.9-1,1.6-2.4,2.1-4.2s0.8-4.1,0.8-7v-14.7c-1.5,2-3.5,3.7-5.9,5.1c-2.4,1.4-5.4,2.1-9,2.1c-1,0-2.3-0.1-3.7-0.3
		c-1.4-0.2-2.9-0.7-4.3-1.4s-3-1.8-4.4-3.3c-1.4-1.5-2.7-3.5-3.9-5.9c-1.1-2.5-2-5.6-2.7-9.3c-0.7-3.7-1.1-8.2-1.1-13.5V67.9
		c0-5.1,0.4-9.4,1.1-12.9c0.7-3.6,1.6-6.5,2.7-8.9c1.1-2.4,2.4-4.3,3.9-5.6c1.5-1.4,3-2.4,4.5-3.1c1.5-0.7,3-1.1,4.4-1.3
		c1.4-0.2,2.7-0.3,3.9-0.3c2.3,0,4.3,0.3,6,0.9s3.3,1.4,4.5,2.3c1.3,1,2.4,2.1,3.3,3.3c0.9,1.2,1.7,2.4,2.3,3.7l1.6-9.2h13.4v89.7
		c0,5.2-0.5,9.9-1.5,14.1c-1,4.2-2.6,7.8-4.7,10.7c-2.1,3-4.8,5.2-8.1,6.8c-3.3,1.6-7.2,2.4-11.8,2.4c-3.1,0-6-0.3-8.7-0.8
		c-2.7-0.5-5.1-1.5-7.1-2.9c-2-1.4-3.6-3.3-4.8-5.6c-1.2-2.4-1.8-5.4-1.8-9.1c0-0.6,0.1-1.4,0.2-2.4c0.1-0.9,0.4-2,0.7-3.1H153.4z
		 M163.1,113c1.1,0,2.1-0.2,3-0.6c0.9-0.4,1.7-0.9,2.4-1.5c0.7-0.6,1.3-1.4,1.8-2.2c0.5-0.8,1-1.7,1.3-2.5V55.1
		c-0.9-1.9-2-3.5-3.4-4.9c-1.4-1.3-3.2-2-5.2-2c-1.3,0-2.4,0.2-3.5,0.7c-1,0.5-1.9,1.3-2.7,2.5c-0.8,1.2-1.4,3-1.8,5.2
		c-0.4,2.2-0.6,5-0.6,8.5v30.7c0,3.5,0.2,6.3,0.6,8.6c0.4,2.2,1,4,1.8,5.2c0.8,1.3,1.7,2.1,2.7,2.6C160.7,112.8,161.9,113,163.1,113
		z"/>
	<path class="st1" d="M206.8,36.8h12.6l1.5,9.5c1.9-3.5,4.1-6.2,6.5-7.9c2.5-1.8,5-2.6,7.6-2.6c4.9,0,8.6,1.5,10.9,4.5
		c2.4,3,3.5,7.6,3.5,13.6c0,0.8-0.1,1.7-0.2,2.7c-0.1,1.1-0.3,2.2-0.5,3.3c-0.2,1.2-0.5,2.3-0.7,3.5c-0.3,1.2-0.6,2.2-0.9,3.2h-11.9
		v-8.7c0-1.9-0.1-3.5-0.4-4.7c-0.2-1.2-0.6-2.2-1-3c-0.4-0.7-0.9-1.3-1.4-1.6c-0.5-0.3-1.1-0.4-1.8-0.4c-1.4,0-2.6,0.4-3.8,1.3
		c-1.2,0.9-2.1,2.1-2.9,3.7v77h-17.2V36.8z"/>
	<path class="st1" d="M283.8,131.3c-2,0-4-0.2-6.1-0.5c-2.1-0.3-4-1-6-2c-1.9-1-3.7-2.4-5.4-4.3c-1.7-1.9-3.2-4.3-4.4-7.3
		c-1.3-3-2.3-6.8-3-11.2c-0.7-4.4-1.1-9.7-1.1-15.9V75.5c0-6.1,0.4-11.3,1.1-15.6c0.7-4.3,1.8-8,3.1-10.9c1.3-2.9,2.8-5.3,4.5-7
		c1.7-1.7,3.5-3.1,5.5-4c1.9-0.9,3.9-1.5,5.9-1.8c2-0.3,4-0.4,6-0.4c1.9,0,3.8,0.1,5.8,0.4s3.9,0.8,5.8,1.7c1.9,0.9,3.7,2.2,5.4,3.9
		c1.7,1.7,3.2,4.1,4.5,7c1.3,2.9,2.3,6.6,3.1,11c0.7,4.4,1.1,9.6,1.1,15.7v14.7c0,6.1-0.4,11.3-1.2,15.7c-0.8,4.4-1.8,8.1-3.1,11.1
		c-1.3,3-2.8,5.5-4.5,7.4c-1.7,1.9-3.5,3.3-5.4,4.4s-3.8,1.7-5.8,2.1C287.5,131.1,285.6,131.3,283.8,131.3z M284,118
		c1.5,0,2.8-0.4,3.9-1.2c1.1-0.8,1.9-2.1,2.6-3.9c0.7-1.8,1.1-4.2,1.4-7.2c0.3-3,0.4-6.6,0.4-11v-23c0-4.4-0.1-8.1-0.4-11.1
		c-0.3-3-0.8-5.4-1.4-7.2c-0.7-1.8-1.5-3.2-2.6-4c-1.1-0.8-2.4-1.2-3.9-1.2c-1.6,0-3,0.4-4.1,1.2c-1.1,0.8-2,2.1-2.7,4
		c-0.7,1.8-1.2,4.2-1.6,7.2s-0.5,6.7-0.5,11.1v23c0,4.4,0.2,8.1,0.5,11c0.3,3,0.8,5.4,1.6,7.2c0.7,1.8,1.6,3.1,2.7,3.9
		C281,117.6,282.3,118,284,118z"/>
	<path class="st1" d="M324.7,36.8H338l1.6,10v0.1c1.4-2.1,2.8-3.9,4.4-5.3c1.6-1.4,3.2-2.6,4.9-3.4c1.7-0.9,3.4-1.5,5.1-1.8
		c1.7-0.4,3.5-0.5,5.2-0.5c5.5,0,9.7,1.9,12.7,5.7c3,3.8,4.4,9.6,4.4,17.2v71.6H359v-71c0-4.1-0.6-7-1.9-8.6
		c-1.3-1.6-3.1-2.4-5.6-2.4c-1.7,0-3.4,0.6-5.1,1.7c-1.7,1.1-3.2,2.7-4.5,4.7v75.6h-17.2V36.8z"/>
	<path class="st1" d="M403.1,23.4c-3.2,0-5.7-1-7.5-2.9c-1.8-1.9-2.7-4.7-2.7-8.3c0-2,0.2-3.7,0.7-5.1c0.5-1.4,1.2-2.5,2-3.3
		c0.9-0.8,2-1.4,3.2-1.8c1.3-0.4,2.7-0.6,4.3-0.6c3.4,0,6,0.9,7.7,2.6c1.8,1.7,2.6,4.5,2.6,8.3c0,3.5-0.9,6.3-2.7,8.2
		C409.1,22.4,406.5,23.4,403.1,23.4z M394.2,36.8h17.2v93.5h-17.2V36.8z"/>
</g>
</svg>
