<svg xmlns="http://www.w3.org/2000/svg" width="50.963" height="56" viewBox="0 0 50.963 56">
  <path id="b7762892cc950b78e6eb969be606ede6" d="M44.46,15.067a11.233,11.233,0,0,0-11.2,11.2A29.069,29.069,0,0,1,16.647,52.4L4.7,58H26.633A28.958,28.958,0,0,0,55.567,29.067c.84-8.307-3.92-13.907-11.107-14Zm-2.053,35.28A28.488,28.488,0,0,1,25.14,56.133a.933.933,0,1,1,0-1.867,26.493,26.493,0,0,0,16.147-5.413,1,1,0,0,1,1.307.187.846.846,0,0,1-.187,1.307Zm5.6-5.507c-.653.84-1.307,1.587-1.96,2.333a.878.878,0,0,1-1.307,0,.9.9,0,0,1,0-1.307,21.728,21.728,0,0,0,1.773-2.147,1,1,0,0,1,1.307-.187.987.987,0,0,1,.187,1.307ZM45.3,13.2c-.093-2.333.093-6.627,1.867-8.493a2.542,2.542,0,0,1,1.96-.84,1,1,0,0,0,.933-.933A1,1,0,0,0,49.127,2,4.025,4.025,0,0,0,45.86,3.493c-2.333,2.52-2.427,7.653-2.333,9.8A11.3,11.3,0,0,1,45.3,13.2Z" transform="translate(-4.7 -2)"/>
</svg>
