<svg xmlns="http://www.w3.org/2000/svg" width="58" height="58" viewBox="0 0 58 58">
  <g id="beer" transform="translate(-1034 -7604)">
    <g id="Group_180" data-name="Group 180" transform="translate(-2.446)">
      <path id="Path_204" data-name="Path 204" d="M349.106,107.4c-3.851.018-7.88.364-11.705-.114-.751-.094-.744,1.085,0,1.178,3.826.478,7.855.131,11.705.114A.589.589,0,0,0,349.106,107.4Z" transform="translate(721.812 7550.998)" fill="#333"/>
      <path id="Path_205" data-name="Path 205" d="M350.922,81.267c2.739-6.743,4.447-14.082,2.434-21.29a.531.531,0,0,0-.318-.365.613.613,0,0,0-.25-.062l-.328-.012c.026-2.31-1.5-4.263-3.946-3.663-.819-3.4-5.938-3.872-7.312-.7-1.892-1.427-5.3-.892-6.145,1.412a2.345,2.345,0,0,0-2.726,2.961l-.231,0a.578.578,0,0,0-.267.067.535.535,0,0,0-.3.361c-2.012,7.207-.3,14.547,2.434,21.29a17.121,17.121,0,0,1,.935,11.314c-.615,2.714-1.549,5.29-1.268,8.124a.61.61,0,0,0,.432.562c2.727.882,5.907.477,8.744.5,2.634.018,5.46.238,8.014-.5a.606.606,0,0,0,.432-.562c.268-2.709-.566-5.187-1.191-7.777A17.306,17.306,0,0,1,350.922,81.267ZM332.569,60.708c6.559-.084,13.194-.284,19.747-.011a24.447,24.447,0,0,1,.73,6.2c-7.075-.163-14.142.685-21.207.082A24.514,24.514,0,0,1,332.569,60.708Zm2.609-2.9c.308.139.8.057.866-.348q1.352-3.181,4.923-.855c.241.383,1,.385,1.077-.14.417-2.718,5.241-3.465,5.4.175.015.337.372.713.745.562,2.089-.472,2.8.636,3.038,2.293-5.842-.2-11.741-.051-17.586.035C333.179,58.01,334.083,57.4,335.178,57.807Zm13.381,42.707c-1.9.177-3.848.1-5.75.086-2.018-.012-4.1.1-6.118-.026-1.939-.117-2.034-.25-1.906-1.942a18.7,18.7,0,0,1,.611-3.411c.772-2.881,1.679-5.989,1.352-9.006-.436-4.02-2.949-7.664-3.92-11.571a33.633,33.633,0,0,1-.957-6.5c7.045.6,14.091-.244,21.146-.085a33.55,33.55,0,0,1-.96,6.584c-.972,3.913-3.483,7.547-3.92,11.571-.327,3.02.58,6.122,1.352,9.006a18.626,18.626,0,0,1,.611,3.411C350.218,100.174,350.307,100.351,348.559,100.514Z" transform="translate(722.794 7560.16)" fill="#333"/>
      <path id="Path_206" data-name="Path 206" d="M351.375,83.772c.127-.553.679-1.071.938-1.583a11.937,11.937,0,0,0,.649-1.561,25.877,25.877,0,0,0,.886-3.912c.128-.741-1.007-1.06-1.136-.313a25.351,25.351,0,0,1-.886,3.912,9.638,9.638,0,0,1-.845,1.856,4.572,4.572,0,0,0-.742,1.288C350.07,84.2,351.206,84.513,351.375,83.772Z" transform="translate(719.69 7556.26)" fill="#333"/>
      <path id="Path_207" data-name="Path 207" d="M353.906,74.152a.589.589,0,0,0,0-1.178A.589.589,0,0,0,353.906,74.152Z" transform="translate(719.196 7556.804)" fill="#333"/>
    </g>
    <rect id="Rectangle_127" data-name="Rectangle 127" width="58" height="58" transform="translate(1034 7604)" fill="none"/>
  </g>
</svg>
