<svg xmlns="http://www.w3.org/2000/svg" width="58" height="58" viewBox="0 0 58 58">
  <g id="desert" transform="translate(1105 -6976)">
    <rect id="Rectangle_140" width="58" height="58" transform="translate(-1105 6976)" fill="none"/>
    <path id="Path_284" data-name="Path 284" d="M261.914,345.067a5.519,5.519,0,0,0,.477-2.374,5.246,5.246,0,0,0-2.009-3.4,15.141,15.141,0,0,0-3.292-1.938c-.233-.111-.462-.222-.741-.36a5.442,5.442,0,0,0-2.272-.738,2.165,2.165,0,0,0-.424.041,2.733,2.733,0,0,0-.5-1.25,5.162,5.162,0,0,0-2.614-1.366,13.552,13.552,0,0,0-3.845-.52,19.614,19.614,0,0,0-3.541.342c-1.789.33-4.13,1.082-5.174,2.791a4.949,4.949,0,0,0-1.467-.208,11.166,11.166,0,0,0-5.957,2.181,6.126,6.126,0,0,0-2.379,2.612,3.286,3.286,0,0,0,.046,2.16,12.9,12.9,0,0,0-3.2,5.712c-.823,2.587-.627,5.172.635,8.383.773,1.967,1.673,2.923,2.751,2.923a2.311,2.311,0,0,0,1.109-.317,4.554,4.554,0,0,0,1.582-1.794c.14-.229.279-.459.43-.677a8.481,8.481,0,0,1,3.1-2.714l.055.066a2.831,2.831,0,0,0,2.221,1.025,5.113,5.113,0,0,0,3.189-1.33,7.507,7.507,0,0,0,3.989.858l.108,0c.329.01.689.019,1.067.019a8.42,8.42,0,0,0,4.028-.775,5.285,5.285,0,0,0,1.918,1.126c.2.08.391.161.584.247a4.6,4.6,0,0,0,1.852.479,2.066,2.066,0,0,0,1.27-.4,4.053,4.053,0,0,0,.473-.422,3.705,3.705,0,0,1,2.19,2.766c.035.253.05.518.065.784a3.948,3.948,0,0,0,.407,1.866,1.53,1.53,0,0,0,1.294.879h0c.833,0,1.835-.8,2.979-2.367a12.619,12.619,0,0,0,2.359-7.857C264.6,349.34,263.7,346.4,261.914,345.067Zm-3.208,14.318-.016-.175c-.018-.173-.032-.346-.046-.52a6.643,6.643,0,0,0-.265-1.609,4.687,4.687,0,0,0-2.326-2.438c.327-.448.629-.934.922-1.4q.17-.274.335-.533c.122-.194.244-.378.365-.548a50.807,50.807,0,0,0,3.151-4.924l.1-.191c.18-.329.366-.67.543-1.02,1.72,1.43,2.239,4.556,2.166,6.329a11.669,11.669,0,0,1-2.33,6.665c-.056.074-.12.166-.19.266a3.147,3.147,0,0,1-1,1.068,1.938,1.938,0,0,1-.7.17.773.773,0,0,1-.168-.017C258.8,360.409,258.749,359.865,258.706,359.385Zm-18.2-6.077a7.79,7.79,0,0,1-.746-2.906c-.026-.2-.051-.4-.087-.651l-.017-.116c-.288-1.812-.535-3.782-.775-6.2q-.137-1.388-.245-2.779c-.016-.218-.042-.45-.069-.693a5.558,5.558,0,0,1,.176-2.93c.881-1.757,3.5-2.733,7.57-2.825q.191,0,.383,0a12.149,12.149,0,0,1,4.063.625c.814.286,1.517.532,1.831,1.436a3.133,3.133,0,0,1,.135.606.5.5,0,0,0,.024.361c.02.413,0,.844-.016,1.224l-.01.243a46.341,46.341,0,0,1-1.364,8.261l-.085.372c-.216.957-.428,1.792-.646,2.55-.2.7-.39,1.277-.588,1.8-.565,1.495-1.6,2.186-3.575,2.387a24.53,24.53,0,0,1-2.474.154C242.264,354.227,241.089,353.914,240.5,353.308Zm-3.692,1.326c-1.066,0-1.782-1.133-2.358-2.044-.117-.184-.228-.36-.337-.52l-.323-.483a46.313,46.313,0,0,1-3.39-6.024c-.1-.209-.209-.43-.323-.66a7.5,7.5,0,0,1-1.026-3.028c0-1.1.979-1.957,2.037-2.725a10.5,10.5,0,0,1,5.429-2.061,3.678,3.678,0,0,1,1.062.145,11.2,11.2,0,0,0,.043,4.2c.056.423.11.827.145,1.2.238,2.56.509,4.82.831,6.909.023.15.045.307.065.468l.043.332a10.534,10.534,0,0,0,.736,3.169,4.438,4.438,0,0,1-2.556,1.12Zm-10.561,1.146c-.053-.181-.1-.351-.15-.5a9.816,9.816,0,0,1,.062-6.662,13.22,13.22,0,0,1,2.471-4.512l.215.5a45.816,45.816,0,0,0,3.934,7.476c.39.585.8,1.151,1.209,1.684a8.971,8.971,0,0,0-3.229,2.811c-.1.144-.216.337-.344.552-.474.8-1.124,1.9-1.985,1.9h0a1.3,1.3,0,0,1-.756-.307A6.136,6.136,0,0,1,226.248,355.78Zm25.055-4.614.085-.271c.072-.229.14-.46.207-.691l.021-.075c.318-1.094.608-2.284.888-3.636l.222-1.055a34.38,34.38,0,0,0,1.031-7.568c0-.164,0-.339-.011-.519a1.388,1.388,0,0,1,.421-.062,5.313,5.313,0,0,1,2.306.9c.218.125.421.242.6.333l.317.159a10.292,10.292,0,0,1,2.591,1.637,3.571,3.571,0,0,1,1.188,3.721,13.225,13.225,0,0,1-1.547,3.24l-.209.353c-.95,1.618-2.02,3.154-2.942,4.444q-.457.638-.918,1.273c-.108.149-.213.314-.322.483a5.455,5.455,0,0,1-.669.9,1.48,1.48,0,0,1-1.082.474,3.471,3.471,0,0,1-1.384-.4c-.164-.075-.336-.146-.512-.218a4.64,4.64,0,0,1-1.488-.829A7.22,7.22,0,0,0,251.3,351.165Z" transform="translate(-1321.531 6671.839)" fill="#333"/>
  </g>
</svg>
