<svg xmlns="http://www.w3.org/2000/svg" width="58" height="58.29" viewBox="0 0 58 58.29">
  <g id="hot" transform="translate(-1360 -7654)">
    <g id="Group_183" data-name="Group 183" transform="translate(-5.746)">
      <path id="Path_219" data-name="Path 219" d="M154.881,157.547a.556.556,0,0,0,.808.621c1.23-.922,2.457-2.326,2.3-3.979s-4.492-5.273-1.494-6.44a.553.553,0,0,0-.146-1.081c-2.081.007-4.223.718-4.351,3.1C151.828,152.938,156.3,154.07,154.881,157.547Zm-.741-5.528c-1.48-1.734-1.073-3.208.34-3.872a2.753,2.753,0,0,0-.055,1.894,6.637,6.637,0,0,0,1.2,2.133c1.068,1.408,1.4,2.691.627,3.892a4.569,4.569,0,0,0-.524-2.084A11.6,11.6,0,0,0,154.14,152.019Z" transform="translate(1233.592 7525.42)" fill="#333"/>
      <path id="Path_220" data-name="Path 220" d="M163.68,156.6a.557.557,0,0,0,.809.622c1.455-1.094,2.92-2.763,2.73-4.722-.2-2.082-5.6-6.408-1.725-7.917a.553.553,0,0,0-.146-1.081c-2.477.009-4.975.822-5.156,3.64C159.945,151,165.425,152.321,163.68,156.6Zm-1.092-6.648c-1.945-2.274-1.274-4.224.723-4.994a3.084,3.084,0,0,0-.183,2.484,7.9,7.9,0,0,0,1.429,2.533c1.415,1.87,1.783,3.574.561,5.158a5.486,5.486,0,0,0-.62-2.824A13.841,13.841,0,0,0,162.588,149.954Z" transform="translate(1231.842 7526.096)" fill="#333"/>
      <path id="Path_221" data-name="Path 221" d="M175.978,166.839a3.586,3.586,0,0,0-3.856-.382c-.009-1.626-.541-2.869-1.978-3.212a.59.59,0,0,0-.074,0,.54.54,0,0,0-.072-.017c-8.908-.295-18.16-.738-27.048.031-2.993.259-2.707,2.086-2.488,4.771a24.162,24.162,0,0,0,1.989,8.252,14.167,14.167,0,0,0,2.954,4.2c-2.606.259-7.257,1.188-7.195,3.764.047,1.949,3.534,2.63,4.934,2.848.56.087,1.125.154,1.692.213,1.584,3.608,7.54,2.939,10.711,2.985a40.516,40.516,0,0,0,8.676-.427c1.69-.356,2.494-1.528,3.48-2.846,2.1-.234,5.441-.672,6.251-2.336,1.219-2.508-5.356-3.6-8.168-3.9q.4-.38.775-.794a.549.549,0,0,0,.2.032c4.359-.18,10.431-3.026,10.949-7.929C177.9,170.256,177.56,167.967,175.978,166.839Zm-4.584,4.069a2.419,2.419,0,0,1,1.5-.259,1.191,1.191,0,0,1,.708,1.39,3.569,3.569,0,0,1-1.447,1.974,7.523,7.523,0,0,1-2.545,1.206,35.923,35.923,0,0,0,1.687-4.295A.57.57,0,0,0,171.394,170.908Zm-9.81,18.115c-1.673.123-3.351.173-5.029.17-2.456,0-8.616.587-10.409-1.776,2.766.2,5.582.158,8.321.209A84.82,84.82,0,0,0,166.1,187.2,6.269,6.269,0,0,1,161.584,189.024Zm3.17-7.233a21.731,21.731,0,0,1,5.388,1.012c.572.179,1.956.446,2.319.9.8,1-2.35,1.713-3.02,1.865-4.689,1.064-9.683,1.045-14.465.966q-3.39-.055-6.779-.187c-2.2-.085-5.776.178-7.709-1.162-2.6-1.8,1.259-2.778,2.679-3.142a15.912,15.912,0,0,1,3.332-.545c.022,0,.037-.011.057-.013a15.275,15.275,0,0,0,8.179,3.064,13.964,13.964,0,0,0,9.9-2.788A.546.546,0,0,0,164.754,181.79Zm.132-1.6c-4.8,4.563-13.272,4.429-18.207.071a14.914,14.914,0,0,1-4.279-7.332,26.369,26.369,0,0,1-.837-4.9,8.778,8.778,0,0,1-.109-2.212c.5-1.875,2.386-1.486,3.708-1.518,8.24-.2,16.49-.244,24.729.027,2.29.631.062,7-.4,8.339A18.913,18.913,0,0,1,164.886,180.186Zm9.8-4.688a11.843,11.843,0,0,1-7.2,3.354c.322-.428.635-.871.925-1.342.167-.271.382-.657.621-1.121.013,0,.022.006.035.006a6.845,6.845,0,0,0,5.342-3.4,2.568,2.568,0,0,0-.149-2.67,2.317,2.317,0,0,0-2.608-.664,16.589,16.589,0,0,0,.37-1.85c2.1-1.776,4.308.4,4.546,2.576A5.824,5.824,0,0,1,174.687,175.5Z" transform="translate(1236.537 7521.967)" fill="#333"/>
      <path id="Path_222" data-name="Path 222" d="M145.142,168.286c-.057-.7-1.157-.708-1.1,0a17.117,17.117,0,0,0,2.589,7.843c.376.6,1.329.046.951-.555A15.906,15.906,0,0,1,145.142,168.286Z" transform="translate(1235.291 7520.914)" fill="#333"/>
      <path id="Path_223" data-name="Path 223" d="M149.2,180.029a.551.551,0,0,0,0,1.1A.551.551,0,0,0,149.2,180.029Z" transform="translate(1234.303 7518.292)" fill="#333"/>
    </g>
    <rect id="Rectangle_131" data-name="Rectangle 131" width="58" height="58" transform="translate(1360 7654)" fill="none"/>
  </g>
</svg>
