<svg xmlns="http://www.w3.org/2000/svg" width="38.972" height="35.891" viewBox="0 0 38.972 35.891">
  <g id="pizza_empty" transform="translate(-225.748 -146.057)">
    <path id="Path_260" data-name="Path 260" d="M249.985,163.459a3.768,3.768,0,0,0-1.214-5.057c-1.923-1.168-3.938.329-4.7,2.114-.575,1.221-.494,3.249.825,3.968C246.275,165.237,249.082,164.813,249.985,163.459Zm-.972-.324a4.114,4.114,0,0,1-3.395.591c-1-.355-1.12-1.855-.712-2.722.488-1.14,1.592-2.459,3.02-1.948s2.243,2.944,1.086,4.079Z" transform="translate(-5.543 -3.679)" fill="#333"/>
    <path id="Path_261" data-name="Path 261" d="M240,176.193a2.929,2.929,0,0,0-2.594,2.822.446.446,0,0,0-.031.219.462.462,0,0,0,.029.211c.236,1.535,1.346,3.067,3.086,2.749a3.576,3.576,0,0,0,2.647-3.745A2.693,2.693,0,0,0,240,176.193Zm.917,4.83c-1.351.78-2.445-.509-2.574-1.789a2,2,0,0,1,1.408-1.991,1.86,1.86,0,0,1,2.327.929,2.661,2.661,0,0,1-1.162,2.851Z" transform="translate(-3.582 -9.285)" fill="#333"/>
    <path id="Path_262" data-name="Path 262" d="M261.5,173.051a2.83,2.83,0,0,0-1.717-3.9c-1.808-.636-3.348.427-4.117,2.039a.477.477,0,0,0-.015.059.656.656,0,0,0-.034.057C254.329,174.938,260.19,176.252,261.5,173.051Zm-2.612-3.11a1.919,1.919,0,0,1,1.792,2.541c-.737,2.322-4.99,1.665-4.14-.872a2.455,2.455,0,0,1,2.349-1.668Z" transform="translate(-9.152 -7.065)" fill="#333"/>
    <path id="Path_263" data-name="Path 263" d="M258,162.756c.537-.069,1.419.568,1.282,1.171s.8.866.934.257a2.164,2.164,0,0,0-2.216-2.4.5.5,0,0,0-.484.484.486.486,0,0,0,.484.488Z" transform="translate(-9.795 -4.847)" fill="#333"/>
    <path id="Path_264" data-name="Path 264" d="M249.956,173.71c.558.272,1.049-.563.489-.836a.914.914,0,0,1-.537-.45.552.552,0,0,1,.127-.658c.467-.416-.22-1.1-.685-.685a1.487,1.487,0,0,0-.413,1.488,1.76,1.76,0,0,0,1.019,1.141Z" transform="translate(-7.133 -7.677)" fill="#333"/>
    <path id="Path_265" data-name="Path 265" d="M267.619,171.548c.56.265,1.052-.569.489-.836a1.15,1.15,0,0,1-.339-1.816c.358-.512-.481-1-.836-.488a2.1,2.1,0,0,0,.686,3.14Z" transform="translate(-12.567 -6.825)" fill="#333"/>
    <path id="Path_266" data-name="Path 266" d="M235.295,185.552c-.461.134-1.224-.077-1.073-.7.147-.606-.786-.864-.934-.258a1.7,1.7,0,0,0,2.264,1.891.485.485,0,0,0-.257-.933Z" transform="translate(-2.309 -11.777)" fill="#333"/>
    <path id="Path_267" data-name="Path 267" d="M240.152,168.982c.357.072.55.185.6.573a.759.759,0,0,1-.391.851c-.587.2-.335,1.136.257.934a1.687,1.687,0,0,0,1.1-1.785,1.551,1.551,0,0,0-1.307-1.507C239.8,167.926,239.54,168.859,240.152,168.982Z" transform="translate(-4.332 -6.778)" fill="#333"/>
    <path id="Path_268" data-name="Path 268" d="M250.435,178.839a1.558,1.558,0,0,0-1.05,1.576c.04.618,1.009.623.968,0a.615.615,0,0,1,.481-.692.72.72,0,0,1,.885.192c.434.449,1.118-.237.685-.685a1.686,1.686,0,0,0-1.969-.391Z" transform="translate(-7.286 -10.061)" fill="#333"/>
    <path id="Path_269" data-name="Path 269" d="M264.573,161.848c-.539-3.417-2.816-5.609-5.345-7.763a32.619,32.619,0,0,0-8.785-5.725c-2.756-1.138-6.955-2.83-10.03-2.145a3.287,3.287,0,0,0-2.1,4.41c-1.226,3.967-3.559,7.5-5.179,11.305-1.867,4.392-3.787,8.735-5.862,13.033-.465.963-1.879,2.848-1.441,4.093a.426.426,0,0,0,.01.076,3.275,3.275,0,0,0,3.743,2.253c3.321-.694,6.762-2.566,9.852-4.024.059.647-.131,1.307.516,1.861,1.188,1.016,1.913-.185,2.065-1.287a6.82,6.82,0,0,0-.049-1.44.468.468,0,0,0,.1-.017l1.937-.752c0,.324-.039.659-.035.948a19.576,19.576,0,0,0,.138,2.442c.18,1.3.925,3.619,2.669,2.563,2.1-1.273,1.066-5.023,1.044-7.476,4.173-2.2,8.484-4.143,12.641-6.366C263.15,166.4,265.313,165.148,264.573,161.848Zm-18.52-13.957a30.57,30.57,0,0,1,7.594,3.132c3.305,1.96,7.639,5.158,9.341,8.972a2.137,2.137,0,0,0-1.4.068,3.04,3.04,0,0,0-1.881,2.11c-1.71-2.935-4.936-4.952-7.7-6.789A30.5,30.5,0,0,0,239.17,150.2c-1.563-4.033,4.883-2.849,6.884-2.306Zm-18.376,32.034a14.672,14.672,0,0,0,1.955-.671c1.911-.636,3.855-1.254,5.713-2.036.966-.407,2.846-1.7,3.727-.75-2.116,1.032-8.8,4.8-11.4,3.458Zm14.231-4.42a2.318,2.318,0,0,1,.175-1.064c.468-.9,1.325-.336,1.71.333Zm4.617,5.029c-.6.218-1.248-.737-1.4-1.1a5.045,5.045,0,0,1-.148-1.411c-.06-.907,0-1.818-.039-2.724-.073-1.515-.857-3.292-2.709-2.486-1.585.69-1.1,2.574-1.131,3.962-.014.667-.142,2.22-.82.768-.129-.276.043-.7-.017-1.01a1.624,1.624,0,0,0-.907-1.321c-1.639-.751-4.437,1.154-5.893,1.683s-4.555,2.243-6.01,1.578c-.95-.433-.564-.5-.137-1.384q.5-1.022.988-2.044,2.886-5.986,5.447-12.1c1.667-3.978,4.077-7.672,5.4-11.785a28.785,28.785,0,0,1,11.687,4.613c3.175,2.039,7.351,4.519,8.664,8.258-3.126,2.019-6.369,3.71-9.6,5.537-2.616,1.479-3.13,3.171-2.964,6.109.044.643.452,4.542-.411,4.853Zm9.931-11.792c-2.859,1.4-5.705,2.836-8.527,4.315.012-.047.017-.1.031-.145.688-2.231,3.554-3.007,5.4-4,2.383-1.281,4.678-2.753,6.94-4.236a.456.456,0,0,0,.319-.568,2.532,2.532,0,0,1,1.137-3.058c1.015-.51,1.609.123,1.878,1.054.808,3.6-4.6,5.372-7.183,6.639Z" fill="#333"/>
    <path id="Path_270" data-name="Path 270" d="M251.547,150.116a20.573,20.573,0,0,1,6.726,2.616.484.484,0,0,0,.488-.836,21.217,21.217,0,0,0-6.957-2.714C251.2,149.066,250.934,150,251.547,150.116Z" transform="translate(-7.846 -0.961)" fill="#333"/>
    <path id="Path_271" data-name="Path 271" d="M264.082,155.543a.484.484,0,1,0-.484-.484.484.484,0,0,0,.484.484Z" transform="translate(-11.675 -2.627)" fill="#333"/>
  </g>
</svg>
