<svg id="soup" xmlns="http://www.w3.org/2000/svg" width="58" height="58" viewBox="0 0 58 58">
  <g id="Path_100" transform="translate(11 21.55)">
    <path id="Path_249" data-name="Path 249" d="M7.4,33.2l.084.753A18.581,18.581,0,0,0,17.362,48.1l.167.084V51.7H31.341a2.966,2.966,0,0,0,2.93-2.93v-.586l.167-.084a18.443,18.443,0,0,0,9.878-14.147L44.4,33.2Zm35.41,1.674A17.272,17.272,0,0,1,32.764,47.431H29.918v1.256h3.1l-.084.335a1.613,1.613,0,0,1-1.59,1.256H18.785V48.687H22.3V47.431H18.952A17.272,17.272,0,0,1,8.907,34.875l-.084-.335H42.81Zm-10.3-11.3a3,3,0,0,1-.921-2.093,3.3,3.3,0,0,1,.837-2.093.657.657,0,0,0,0-.921h0a.607.607,0,0,0-.837,0,4.144,4.144,0,0,0,0,5.943,2.931,2.931,0,0,1,0,4.186.651.651,0,0,0,.921.921A4.3,4.3,0,0,0,32.513,23.574Zm-6.027-.167Zm-.084.251h0a3.009,3.009,0,0,1-.084-4.186.461.461,0,0,0,.167-.419.639.639,0,0,0-.167-.419h0a.541.541,0,0,0-.419-.167,1.19,1.19,0,0,0-.5.167,4.144,4.144,0,0,0,0,5.943,2.931,2.931,0,0,1,0,4.186.651.651,0,0,0,.921.921A4.4,4.4,0,0,0,26.4,23.657Zm-6.278-.084-.084-.084a2.881,2.881,0,0,1,.084-4.018.657.657,0,0,0,0-.921.461.461,0,0,0-.419-.167,1.19,1.19,0,0,0-.5.167,4.144,4.144,0,0,0,0,5.943,2.832,2.832,0,0,1,0,4.1.657.657,0,0,0,0,.921c.167.167.251.167.5.167a.639.639,0,0,0,.419-.167A4.144,4.144,0,0,0,20.124,23.574Z" transform="translate(-7.4 -18.3)" fill="#333"/>
  </g>
  <g id="Path_101" transform="translate(37.034 40.217)">
    <path id="Path_250" data-name="Path 250" d="M44.025,41.353a9.019,9.019,0,0,1-4.52,5.776c-.084,0-.167.084-.335.084a.7.7,0,0,1-.586-.335.58.58,0,0,1,.251-.837A7.634,7.634,0,0,0,42.686,41.1a.729.729,0,0,1,.67-.5h.167A.594.594,0,0,1,44.025,41.353Z" transform="translate(-38.5 -40.6)" fill="#333"/>
  </g>
  <g id="Ellipse_19" transform="translate(34.606 46.663)">
    <path id="Path_251" data-name="Path 251" d="M37.274,49.137a.839.839,0,0,1-.837.837.791.791,0,0,1-.837-.837.837.837,0,1,1,1.674,0Z" transform="translate(-35.6 -48.3)" fill="#333"/>
  </g>
  <rect id="Rectangle_135" width="58" height="58" fill="none"/>
</svg>
