<svg id="sushi" xmlns="http://www.w3.org/2000/svg" width="58" height="58" viewBox="0 0 58 58">
  <g id="Path_98" transform="translate(6.563 26.452)">
    <g id="Path_252">
      <path id="Path_290" data-name="Path 290" d="M45.9,11.3C39,3.4,30.9-.7,22.6-.7h-.2a23.755,23.755,0,0,0-9.8,2.2h-.2a.367.367,0,0,0-.3.1l-.1.1h0A38.033,38.033,0,0,0-.5,11.3a4.7,4.7,0,0,0,0,6.1,3.043,3.043,0,0,0,2.4,1.1,5.838,5.838,0,0,0,3-1.1c1.4-.9,2.8-1.7,4.3-2.5l.4-.2.3-.2.1.5.1.5c.8,5.4,6.2,9.5,12.7,9.5s11.9-4.1,12.7-9.6l.1-.5.1-.4.4.3.4.3a25.653,25.653,0,0,1,4.1,2.6l.2.2a5.134,5.134,0,0,0,2.4,1,3.676,3.676,0,0,0,2.7-1.3A4.849,4.849,0,0,0,45.9,11.3ZM34.5,14.4c-.1,5.2-5.3,9.5-11.6,9.5s-11.4-4.1-11.6-9.4v-.4l.1-.1.2-.1C15.9,12,18.7,12,22.9,12c4.4,0,7.3,0,11.3,1.8l.2.1.1.1Zm10.6,2.3h0a2.61,2.61,0,0,1-2,1,3.717,3.717,0,0,1-1.9-.9l-.2-.2c-8.2-5.7-12-5.7-18.3-5.7s-9.4,0-18.5,5.7a3.775,3.775,0,0,1-2.3.8,2.088,2.088,0,0,1-1.6-.8A3.618,3.618,0,0,1,.3,12a38.179,38.179,0,0,1,9.8-8.1l.8-.5.6-.4-.2.7-1.7,6h0a.187.187,0,0,0,0,.3l.3.3a.349.349,0,0,1,.2.1h.2a1.38,1.38,0,0,0,.3-.4l2.3-7.3V2.6l.1-.1.2-.1A26.622,26.622,0,0,1,18.7.8l.5-.1.4-.1-.2.4L18.2,6.2a.6.6,0,0,0,.1.4l.3.3h.1a.458.458,0,0,0,.5-.4L20.5.7V.5h2.1a24.734,24.734,0,0,1,6,.8l.4.1.3.1-.1.3-.1.2L27.7,8.4a.6.6,0,0,0,.1.4c.1.2.2.3.4.3h0a.675.675,0,0,0,.6-.4l1.5-6.6.1-.3.3.1L31,2a25.56,25.56,0,0,1,5.5,2.7l.2.1.2.1-.1.2L35,10.5a.67.67,0,0,0,.3.8h.5c.1,0,.2-.1.2-.3l1.8-5.4.3.2.4.3A37.609,37.609,0,0,1,45,12.2,3.48,3.48,0,0,1,45.1,16.7Z" fill="#333"/>
    </g>
  </g>
  <g id="Path_99" transform="translate(22.792 40.627)">
    <path id="Path_253" d="M12.3.7h0a.684.684,0,0,0-.7.7h0V3.5a.7.7,0,1,0,1.4,0V1.4a.684.684,0,0,0-.7-.7Zm-2.9,1L8.9.5A1,1,0,0,0,8.4.1a.454.454,0,0,0-.5,0,1,1,0,0,0-.5.4.446.446,0,0,0,0,.5L8,2.3a.819.819,0,0,0,1,.4c.3-.1.6-.4.5-.7,0-.2,0-.2-.1-.3ZM4.8,4.2l-.6-1a1.756,1.756,0,0,0-.5-.4H3.5a.9.9,0,0,0-.5.1.85.85,0,0,0-.3.5.44.44,0,0,0,.1.5l.6,1a1,1,0,0,0,.5.4.44.44,0,0,0,.5-.1.657.657,0,0,0,.5-.8A.349.349,0,0,0,4.8,4.2ZM1.8.5C1.6.4,1.5.2,1.3.2H1.1C.8.2.4.4.4.7L0,1.9a.876.876,0,0,0,.5,1,.446.446,0,0,0,.5,0,1,1,0,0,0,.4-.5l.4-1.2A.846.846,0,0,0,1.8.5Z" fill="#333"/>
  </g>
  <rect id="Rectangle_138" width="58" height="58" fill="none"/>
</svg>
