<?xml version="1.0" encoding="utf-8"?>
<!-- Generator: Adobe Illustrator 22.1.0, SVG Export Plug-In . SVG Version: 6.00 Build 0)  -->
<svg version="1.1" id="wok" xmlns="http://www.w3.org/2000/svg" xmlns:xlink="http://www.w3.org/1999/xlink" x="0px" y="0px"
	 viewBox="0 0 58 58" style="enable-background:new 0 0 58 58;" xml:space="preserve">
<style type="text/css">
	.st0{fill:#333333;}
	.st1{fill:none;}
</style>
<g id="wok">
	<g id="wok">
		<path class="st0" d="M49.4,20.4C49.2,20.2,49,20,48.8,20h0l-21.8-0.8c-0.1,0-0.1,0-0.1-0.1v-0.7c0,0,0-0.1,0.1-0.1l21.7-1.3h0
			c0.3,0,0.6-0.2,0.6-0.5v0c0-0.1-0.1-0.3-0.2-0.4c0,0-0.1,0-0.1-0.1c-0.1-0.1-0.2-0.1-0.3-0.1l-28.9,1.8c-0.1,0-0.3,0.1-0.4,0.1
			c0,0,0,0.1-0.1,0.1c-0.1,0.1-0.1,0.2-0.1,0.3c0,0.1,0.1,0.2,0.1,0.3l0.2,0.2c0,0,0,0,0,0.1c0,0,0,0,0,0.1l-0.2,0.2
			c0,0,0,0.1-0.1,0.1c-0.1,0.1-0.1,0.2-0.1,0.3c0,0.2,0.1,0.3,0.2,0.4c0,0,0,0,0,0c0.1,0.1,0.3,0.2,0.4,0.2l3.3,0.1c0,0,0.1,0,0.1,0
			c0,0,0,0.1,0,0.1L23,20.8c-0.9,1.5-0.7,3.4,0.6,4.6c1,1,1.1,2.6,0.1,3.7c-1.4,1.5-1.5,3.8-0.1,5.3l0.1,0.1c0.9,0.9,1,2.3,0.3,3.3
			l-0.1,0.1c0,0,0,0-0.1,0h-7.7c0,0-0.1,0-0.1,0c0,0,0-0.1,0-0.1l2.5-3.8c0,0,0,0,0.1,0h1.5c0.3,0,0.6-0.2,0.6-0.6
			c0-0.3-0.3-0.6-0.6-0.6h-1.7c0,0,0,0-0.1,0l-4-3.6c-0.2-0.2-0.5-0.2-0.7,0l-5,3.6c-0.2,0.2-0.3,0.5-0.2,0.8l0.1,0.1l5.6,5.3
			c0,0,0,0,0,0.1V39l4.5,16.6h12.9c3.5,0,3.9-0.5,4.8-3.4l4.2-13.3c0,0,0,0,0,0l5.6-5.2c0.1-0.1,0.2-0.2,0.2-0.4
			c0-0.1,0-0.3-0.1-0.4c0,0,0,0,0,0l-0.1-0.1l-5-3.5c-0.2-0.2-0.5-0.2-0.7,0l-4,3.6c0,0,0,0-0.1,0h-2.2c-0.3,0-0.6,0.3-0.6,0.6
			c0,0.3,0.2,0.6,0.6,0.6h2.1c0,0,0.1,0,0.1,0l2.5,3.8c0,0,0,0.1,0,0.1c0,0,0,0-0.1,0H32c0,0,0,0-0.1,0c0,0,0,0,0-0.1l0.1-0.5
			c0.5-1.3,0.1-2.8-0.9-3.8L31,33.5c-0.9-1-0.9-2.6,0-3.6c1.4-1.5,1.5-3.9,0.1-5.4L31,24.4c-0.9-1-0.8-2.6,0.1-3.5l0.2-0.2l0.1-0.2
			c0,0,0.1,0,0.1,0c0,0,0,0,0,0L48.9,21c0,0,0,0,0,0c0.1,0,0.3-0.1,0.4-0.2c0.1-0.1,0.2-0.2,0.2-0.4C49.5,20.5,49.4,20.4,49.4,20.4z
			 M24.3,33.8c-1-1.1-1-2.7,0-3.8v0c1.5-1.5,1.5-3.9,0-5.4c-1-1-1-2.7,0-3.7c0.1-0.1,0.2-0.2,0.2-0.3v-0.3c0,0,0,0,0-0.1
			c0,0,0,0,0.1,0l1.8,0.1c0,0,0.1,0,0.1,0c0,0,0,0.1,0,0.1L26.2,21c-0.8,1.5-0.6,3.3,0.5,4.5c1,1,1.1,2.6,0.1,3.7c0,0,0,0-0.1,0
			h-0.1c-1.4,1.5-1.4,3.8,0,5.3c0,0,0,0,0,0l0.1,0.1c0.9,0.9,1,2.3,0.3,3.3l-0.1,0.2c0,0,0,0-0.1,0h-1.8c0,0-0.1,0-0.1,0
			c0,0,0-0.1,0-0.1l0.1-0.5C25.7,36.3,25.3,34.8,24.3,33.8z M14.4,37.7C14.4,37.7,14.4,37.7,14.4,37.7
			C14.4,37.7,14.4,37.7,14.4,37.7l-4.6-4.3c0,0,0,0,0-0.1c0,0,0-0.1,0-0.1l3.8-2.7c0,0,0.1,0,0.1,0l3.4,3c0,0,0,0.1,0,0.1L14.4,37.7
			C14.5,37.7,14.5,37.7,14.4,37.7z M37.4,33.6c0,0,0-0.1,0-0.1l3.4-3c0,0,0.1,0,0.1,0l3.8,2.7c0,0,0,0,0,0.1c0,0,0,0.1,0,0.1
			l-4.5,4.3c0,0,0,0-0.1,0c0,0,0,0,0,0c0,0-0.1,0-0.1,0L37.4,33.6z M39.2,39.3C39.2,39.3,39.2,39.3,39.2,39.3
			c0.1,0.1,0.1,0.1,0.1,0.1l-4,12.6c-0.8,2.5-0.9,2.6-3.7,2.6H19.7c0,0-0.1,0-0.1-0.1l-4.1-15.1c0,0,0-0.1,0-0.1c0,0,0,0,0.1,0H39.2
			z M30.9,27.3c0.1,0.7-0.1,1.3-0.6,1.8c0,0-0.1,0.1-0.1,0.1C29.5,30,29.1,30.9,29,32c0,1,0.4,2,1.1,2.7c0.9,0.9,1,2.3,0.3,3.3
			l-0.1,0.2c0,0,0,0-0.1,0h-1.8c0,0-0.1,0-0.1,0c0,0,0-0.1,0-0.1l0.2-0.5c0.5-1.3,0.1-2.8-0.9-3.7c-1-1-1-2.7,0-3.7
			c1.3-1.3,1.5-3.4,0.4-4.9l-0.5-0.5c-0.9-1-0.9-2.6,0-3.7c0,0,0.1-0.1,0.1-0.1c0,0,0.1-0.1,0.1-0.1l0.1-0.3c0,0,0.1-0.1,0.1-0.1
			l1.7,0.1c0,0,0.1,0,0.1,0c0,0,0,0.1,0,0.1l-0.3,0.5c-0.7,1.4-0.5,3.2,0.6,4.4C30.6,26,30.9,26.6,30.9,27.3z"/>
	</g>
</g>
<rect id="Rectangle_139" class="st1" width="58" height="58"/>
</svg>
