<svg id="wok" xmlns="http://www.w3.org/2000/svg" width="58" height="58" viewBox="0 0 58 58">
  <g id="wok-2" data-name="wok">
    <g id="wok-3" data-name="wok">
      <path id="Path_291" data-name="Path 291" d="M49.4,20.4c-.2-.2-.4-.4-.6-.4h0L27,19.2c-.1,0-.1,0-.1-.1v-.7a.1.1,0,0,1,.1-.1L48.7,17h0a.56.56,0,0,0,.6-.5h0a.758.758,0,0,0-.2-.4A.1.1,0,0,1,49,16a.367.367,0,0,0-.3-.1L19.8,17.7c-.1,0-.3.1-.4.1a.1.1,0,0,1-.1.1.367.367,0,0,0-.1.3c0,.1.1.2.1.3l.2.2v.2l-.2.2a.1.1,0,0,1-.1.1.367.367,0,0,0-.1.3.52.52,0,0,0,.2.4h0a.758.758,0,0,0,.4.2l3.3.1h.1v.1l-.1.5a3.647,3.647,0,0,0,.6,4.6,2.656,2.656,0,0,1,.1,3.7,3.871,3.871,0,0,0-.1,5.3l.1.1a2.584,2.584,0,0,1,.3,3.3l-.1.1H16v-.1L18.5,34h1.6a.576.576,0,0,0,.6-.6.645.645,0,0,0-.6-.6H18.3l-4-3.6a.483.483,0,0,0-.7,0l-5,3.6a.778.778,0,0,0-.2.8l.1.1L14.1,39v0l4.5,16.6H31.5c3.5,0,3.9-.5,4.8-3.4l4.2-13.3h0l5.6-5.2a.52.52,0,0,0,.2-.4.6.6,0,0,0-.1-.4h0l-.1-.1-5-3.5a.483.483,0,0,0-.7,0l-4,3.6H34.1a.645.645,0,0,0-.6.6.576.576,0,0,0,.6.6h2.2l2.5,3.8V38H31.9v-.1l.1-.5a3.611,3.611,0,0,0-.9-3.8l-.1-.1a2.738,2.738,0,0,1,0-3.6,4,4,0,0,0,.1-5.4l-.1-.1a2.605,2.605,0,0,1,.1-3.5l.2-.2.1-.2h.1l17.4.5h0a.758.758,0,0,0,.4-.2.52.52,0,0,0,.2-.4C49.5,20.5,49.4,20.4,49.4,20.4ZM24.3,33.8a2.782,2.782,0,0,1,0-3.8h0a3.8,3.8,0,0,0,0-5.4,2.657,2.657,0,0,1,0-3.7c.1-.1.2-.2.2-.3v-.4h.1l1.8.1h.1v.1l-.3.6a3.916,3.916,0,0,0,.5,4.5,2.656,2.656,0,0,1,.1,3.7h-.2a3.869,3.869,0,0,0,0,5.3h0l.1.1a2.584,2.584,0,0,1,.3,3.3l-.1.2h-2V38l.1-.5A3.087,3.087,0,0,0,24.3,33.8Zm-9.9,3.9h0L9.8,33.4v-.2l3.8-2.7h.1l3.4,3v.1l-2.7,4.1Zm23-4.1v-.1l3.4-3h.1l3.8,2.7v.2l-4.5,4.3H40Zm1.8,5.7h0l.1.1L35.3,52c-.8,2.5-.9,2.6-3.7,2.6H19.7a.1.1,0,0,1-.1-.1L15.5,39.4v-.1H39.2Zm-8.3-12a2.016,2.016,0,0,1-.6,1.8l-.1.1A4.744,4.744,0,0,0,29,32a3.864,3.864,0,0,0,1.1,2.7,2.584,2.584,0,0,1,.3,3.3l-.1.2h-2v-.1l.2-.5a3.405,3.405,0,0,0-.9-3.7,2.657,2.657,0,0,1,0-3.7,3.8,3.8,0,0,0,.4-4.9l-.5-.5a2.872,2.872,0,0,1,0-3.7l.1-.1.1-.1.1-.3.1-.1,1.7.1h.1v.1l-.3.5a3.97,3.97,0,0,0,.6,4.4A1.965,1.965,0,0,1,30.9,27.3Z" fill="#333"/>
    </g>
  </g>
  <rect id="Rectangle_139" width="58" height="58" fill="none"/>
</svg>
