<svg xmlns="http://www.w3.org/2000/svg" width="28" height="20.001" viewBox="0 0 28 20.001">
  <path id="_860811a5382e762a9fb47a486a67fdca" data-name="860811a5382e762a9fb47a486a67fdca" d="M29,12H24.535l-3.7-5.555a1,1,0,0,0-1.664,1.11L22.132,12H9.868l2.964-4.445a1,1,0,0,0-1.664-1.11L7.465,12H3a1,1,0,0,0,0,2H4.08l.771,9.249A3.016,3.016,0,0,0,7.84,26H24.16a3.018,3.018,0,0,0,2.99-2.751L27.92,14H29a1,1,0,0,0,0-2ZM12,22a1,1,0,0,1-2,0V17a1,1,0,0,1,2,0Zm5,0a1,1,0,0,1-2,0V17a1,1,0,0,1,2,0Zm5,0a1,1,0,0,1-2,0V17a1,1,0,0,1,2,0Z" transform="translate(-2 -5.999)" fill="#fff"/>
</svg>
