<svg id="Слой_1" data-name="Слой 1" xmlns="http://www.w3.org/2000/svg" viewBox="0 0 61.75 80.72"><title>drink</title><path id="Path_113" data-name="Path 113" d="M44.78,15.74l-13.62,12a.62.62,0,0,1-.67,0L8.24,8.07c7-1.34,15.91-1.61,22.65,3.37C35.07,14.53,39.93,15.61,44.78,15.74Z"/><path id="Path_114" data-name="Path 114" d="M30.89,29.06a2.21,2.21,0,0,1-1.21-.4L5.4,7.27,8,6.73c9.71-1.89,17.93-.67,23.73,3.63a22.58,22.58,0,0,0,13.09,4h3.5L32.1,28.66A2.16,2.16,0,0,1,30.89,29.06ZM11.34,8.88,30.89,26.1l10.52-9.28a23.57,23.57,0,0,1-11.33-4.31C24.55,8.34,17.27,8.07,11.34,8.88Zm33,71.84h-27a1.75,1.75,0,0,1-1.75-1.21,2.13,2.13,0,0,1,.4-2.16l.27-.26,13.36-7.27a2,2,0,0,1,2.42,0l13.63,7.53a2,2,0,0,1,.4,2.16A1.85,1.85,0,0,1,44.38,80.72ZM20.51,78h20.9L30.89,72.38Z"/><path id="Path_115" data-name="Path 115" d="M30.89,29.06a2.21,2.21,0,0,1-1.21-.4h0L.68,3.1A1.48,1.48,0,0,1,.14,1.22,1.71,1.71,0,0,1,1.76,0H59.89a1.58,1.58,0,0,1,1.62,1.21,1.32,1.32,0,0,1-.33,1.84l-.07.05L32,28.66A1.53,1.53,0,0,1,30.89,29.06ZM4.19,2.69,30.89,26.1,57.59,2.69Z"/><path id="Path_116" data-name="Path 116" d="M22.66,15.07a2.55,2.55,0,0,1-.94-.27L18.48,12a1.34,1.34,0,0,1,1.7-2.07l.05.05,3.24,2.82a1.3,1.3,0,0,1,.18,1.84l0,.05A2.06,2.06,0,0,1,22.66,15.07Zm8.77,7.67a2.55,2.55,0,0,1-.94-.27l-5.66-5a1.34,1.34,0,1,1,1.75-2l5.66,5a1.3,1.3,0,0,1,.18,1.84s0,0,0,0a1.47,1.47,0,0,1-1,.41Zm-.54,49.37a1.27,1.27,0,0,1-1.34-1.2.33.33,0,0,1,0-.14V27.31a1.35,1.35,0,0,1,2.7,0V70.77a1.36,1.36,0,0,1-1.36,1.34ZM26.31,12.65c0,.13-.27.54-.27.13s.27-.27.27.14c.13.67,1.08.4.94-.27a1.15,1.15,0,1,0,0,.27C27.39,12.24,26.44,12,26.31,12.65Zm9.44,6.19a.89.89,0,0,1-1,.8.88.88,0,0,1-.79-.8c.13-1.08,1.75-1.08,1.75,0a.54.54,0,0,0,.58.5.55.55,0,0,0,.5-.5A2,2,0,0,0,34.94,17a2,2,0,0,0-1.89,1.89,2,2,0,0,0,1.76,1.88,1.83,1.83,0,0,0,1.88-1.79v-.09c.14-.68-.81-.68-.94,0Z"/></svg>