<svg xmlns="http://www.w3.org/2000/svg" width="351.197" height="148.126" viewBox="0 0 351.197 148.126">
  <path id="outline_logo" d="M9.909-115.924H27.488V-13.846H51.446V0H9.909ZM84.024,1.018a24.344,24.344,0,0,1-10.69-2.24A19.727,19.727,0,0,1,65.5-8.212,35.325,35.325,0,0,1,60.677-20.4a84.74,84.74,0,0,1-1.629-17.884V-55.926a75.727,75.727,0,0,1,1.323-15.237,44.639,44.639,0,0,1,3.461-10.656,22.241,22.241,0,0,1,4.955-6.821,22.411,22.411,0,0,1,5.8-3.835,21.193,21.193,0,0,1,5.939-1.7,43.764,43.764,0,0,1,5.464-.373,28.552,28.552,0,0,1,8.891,1.391,18.239,18.239,0,0,1,7.534,4.751,23.81,23.81,0,0,1,5.192,8.993,43.756,43.756,0,0,1,1.934,14.049q0,2.851-.17,5.769t-.441,5.735q-.271,2.817-.713,5.464t-.916,4.887H76.287V-34a93.215,93.215,0,0,0,.475,10.282A23.633,23.633,0,0,0,78.357-17a7.566,7.566,0,0,0,3.054,3.665,9.567,9.567,0,0,0,4.853,1.12,7.634,7.634,0,0,0,3.054-.645A6.486,6.486,0,0,0,91.931-15a11.781,11.781,0,0,0,1.8-3.97,23.63,23.63,0,0,0,.679-6.142v-2.918h14.321v3.6q0,13.3-6.346,19.377T84.024,1.018Zm9.5-56.062q.068-.747.136-2t.1-2.613q.034-1.357.034-2.681v-2.274q0-9.23-2.172-13.3a6.935,6.935,0,0,0-6.448-4.072,7.316,7.316,0,0,0-3.937,1.052,7.537,7.537,0,0,0-2.783,3.529,24.817,24.817,0,0,0-1.629,6.55,78.533,78.533,0,0,0-.543,10.113v5.7ZM138.05,6.38q0,6.041,2.24,8.552t6.923,2.511a11.719,11.719,0,0,0,3.665-.577,6.88,6.88,0,0,0,3.088-2.1A11.445,11.445,0,0,0,156.1,10.52a24.885,24.885,0,0,0,.814-6.991V-11.2a20.586,20.586,0,0,1-5.939,5.124,17.466,17.466,0,0,1-8.993,2.138,25.962,25.962,0,0,1-3.665-.305,14.884,14.884,0,0,1-4.344-1.391,16.215,16.215,0,0,1-4.412-3.292,20.444,20.444,0,0,1-3.869-5.939,41.162,41.162,0,0,1-2.749-9.332,74.605,74.605,0,0,1-1.052-13.54V-62.306a67.917,67.917,0,0,1,1.052-12.929A38.643,38.643,0,0,1,125.7-84.16a18.032,18.032,0,0,1,3.9-5.633,17.508,17.508,0,0,1,4.479-3.088,15.033,15.033,0,0,1,4.446-1.323,31.557,31.557,0,0,1,3.869-.271,18.754,18.754,0,0,1,6.007.882,15.968,15.968,0,0,1,4.547,2.342,16.207,16.207,0,0,1,3.292,3.292,27.242,27.242,0,0,1,2.308,3.665l1.561-9.23h13.371V-3.8a61,61,0,0,1-1.493,14.083A30.151,30.151,0,0,1,167.3,21.006a21.149,21.149,0,0,1-8.111,6.821A26.862,26.862,0,0,1,147.416,30.2a44.261,44.261,0,0,1-8.687-.814A19.293,19.293,0,0,1,131.6,26.5a14.326,14.326,0,0,1-4.819-5.633,20.392,20.392,0,0,1-1.765-9.061,17.348,17.348,0,0,1,.2-2.375A22.151,22.151,0,0,1,125.9,6.38Zm9.773-23.619a7.492,7.492,0,0,0,3.02-.577,8.711,8.711,0,0,0,2.375-1.527,10.6,10.6,0,0,0,1.833-2.172,16.693,16.693,0,0,0,1.323-2.511V-75.133a15.069,15.069,0,0,0-3.427-4.853,7.319,7.319,0,0,0-5.192-2,8.591,8.591,0,0,0-3.461.679,6.163,6.163,0,0,0-2.715,2.545,15.646,15.646,0,0,0-1.8,5.158,45.785,45.785,0,0,0-.645,8.518v30.746a46.354,46.354,0,0,0,.645,8.552,16.1,16.1,0,0,0,1.8,5.226,6.3,6.3,0,0,0,2.749,2.613A8.471,8.471,0,0,0,147.823-17.239Zm43.641-76.219h12.556l1.493,9.5a22.827,22.827,0,0,1,6.55-7.941,12.876,12.876,0,0,1,7.568-2.647q7.4,0,10.927,4.547t3.529,13.642a26.514,26.514,0,0,1-.17,2.749q-.17,1.595-.475,3.326t-.747,3.461q-.441,1.731-.916,3.156H219.834v-8.687a24.151,24.151,0,0,0-.373-4.683,10.7,10.7,0,0,0-.984-2.952,3.724,3.724,0,0,0-1.425-1.561,3.647,3.647,0,0,0-1.765-.441,6.071,6.071,0,0,0-3.767,1.323,10.1,10.1,0,0,0-2.885,3.7V0H191.464ZM257.842,1.018a16.584,16.584,0,0,1-7.7-1.731,16.8,16.8,0,0,1-5.667-4.717,21.013,21.013,0,0,1-3.5-7.093,32.011,32.011,0,0,1-1.188-8.925A33.79,33.79,0,0,1,241.214-31.7a26.338,26.338,0,0,1,4.174-8.077,32.509,32.509,0,0,1,6.821-6.55,65.343,65.343,0,0,1,9.434-5.6q2.579-1.29,5.8-2.613t5.735-2.274V-69.161q0-2.715-.2-5.056a12.512,12.512,0,0,0-.984-4.072A6.093,6.093,0,0,0,269.652-81a7.975,7.975,0,0,0-4.276-.984,9.679,9.679,0,0,0-3.563.679A7.418,7.418,0,0,0,258.759-79a12.157,12.157,0,0,0-2.1,4.344,24.683,24.683,0,0,0-.781,6.719v4.072h-13.1q-.611-2.647-.916-4.853a31.886,31.886,0,0,1-.305-4.378,22.325,22.325,0,0,1,1.8-9.23,18.624,18.624,0,0,1,5.022-6.719,21.87,21.87,0,0,1,7.7-4.106,33.053,33.053,0,0,1,9.841-1.391,37.478,37.478,0,0,1,11.606,1.527,16.73,16.73,0,0,1,7.364,4.581,17.346,17.346,0,0,1,3.869,7.669,46.119,46.119,0,0,1,1.12,10.792V0h-12.76L275.9-8.009a21.041,21.041,0,0,1-7.432,6.516A21.994,21.994,0,0,1,257.842,1.018Zm7.6-13.235a8.815,8.815,0,0,0,4.242-1.12,12.473,12.473,0,0,0,3.5-2.749V-45.338q-1.357.543-3.054,1.29a29.77,29.77,0,0,0-3.665,1.968,24.817,24.817,0,0,0-3.6,2.783,18.529,18.529,0,0,0-3.156,3.869,21.02,21.02,0,0,0-2.24,5.056,21.724,21.724,0,0,0-.848,6.278,15.684,15.684,0,0,0,2.1,8.62Q260.829-12.217,265.444-12.217ZM307.66-93.458h13.235l1.561,9.977v.068a26.366,26.366,0,0,1,4.378-5.328,22.4,22.4,0,0,1,4.853-3.427A20.173,20.173,0,0,1,336.81-94,25.465,25.465,0,0,1,342-94.544q8.212,0,12.658,5.735T359.106-71.6V0H341.935V-70.993q0-6.176-1.9-8.586a6.662,6.662,0,0,0-5.565-2.409,9.169,9.169,0,0,0-5.124,1.7,16.28,16.28,0,0,0-4.513,4.683V0H307.66Z" transform="translate(-8.909 116.924)" fill="none" stroke="#000" stroke-width="2"/>
</svg>
