<svg xmlns="http://www.w3.org/2000/svg" width="58" height="58.462" viewBox="0 0 58 58.462">
  <g id="coctails" transform="translate(-1096 -7654)">
    <g id="Group_181" data-name="Group 181" transform="translate(-4.674)">
      <path id="Path_230" data-name="Path 230" d="M180.493,241.224q-4.238-.075-8.481-.092c.566-.715,1.136-1.428,1.682-2.157.459-.613-.573-1.206-1.027-.6-.7.929-1.417,1.841-2.142,2.749-10.691-.039-21.4.111-32.081.1a.533.533,0,0,0-.236.036.607.607,0,0,0-.292.9.566.566,0,0,0,.044.072l0,.008c3.8,4.1,7.787,7.863,11.806,11.73,1.707,1.644,3.377,3.343,5.06,5.013.7.691,1.756,2.155,2.861,3.114.085,4.135.073,8.267,0,12.4-1.913.024-10.681.005-10.2,3.554.373,2.785,7.926,2.769,9.833,2.874a41.192,41.192,0,0,0,9.049-.529c1.207-.2,4.562-.775,4.957-2.319.882-3.449-8.063-3.622-10.188-3.653.067-4.075.078-8.148,0-12.224.4-.352.769-.744,1.076-1.018,2.151-1.918,4.186-3.964,6.185-6.038,4.16-4.314,8.152-8.789,12.517-12.9A.6.6,0,0,0,180.493,241.224Zm-40.741,1.187c9.933,0,19.882-.128,29.82-.1q-1.483,1.828-2.969,3.654c-7.864-.03-15.738-.561-23.6-.13Q141.362,244.142,139.752,242.411Zm20.164,34.607a.6.6,0,0,0,1.189,0c.012-.468.009-.935.019-1.4a28.523,28.523,0,0,1,5.952.621c.5.115,1.988.315,2.307.763.941,1.316-.961,1.7-1.734,1.937a31.17,31.17,0,0,1-10.327.8c-2.114-.117-5.6-.034-7.492-1.155-2-1.181.688-2.012,1.949-2.3a27.913,27.913,0,0,1,5.9-.592c-.008.444-.007.888-.017,1.332a.6.6,0,0,0,1.189,0q.171-7.075.037-14.147a1.858,1.858,0,0,0,.506.129,1.488,1.488,0,0,0,.561-.076Q160.08,269.972,159.915,277.018ZM164.29,257.6c-.719.7-1.447,1.4-2.188,2.075-1.435,1.315-2.351,1.943-4.141.753-1.521-1.012-2.955-2.9-4.285-4.19-1.435-1.387-2.762-2.869-4.257-4.2-1.841-1.633-3.6-3.332-5.315-5.073,7.177-.313,14.362.114,21.541.177-.644.805-1.268,1.624-1.89,2.445a4.045,4.045,0,0,0-5.18,1.835,3.52,3.52,0,0,0,1.033,4.079c-.522.747-1.121,1.436-1.626,2.2-.424.64.606,1.236,1.027.6.488-.737,1.063-1.407,1.574-2.128.069.034.137.07.207.1a3.965,3.965,0,0,0,4.7-1.512,3.339,3.339,0,0,0-.7-4.58q1.159-1.531,2.364-3.031c2.458,0,4.915-.052,7.371-.2-1.73,1.809-3.437,3.641-5.161,5.458C167.7,254.167,166.022,255.912,164.29,257.6Zm-3.206-2.5c-.992-.514-1.942-1.8-1.539-2.94a2.872,2.872,0,0,1,3.465-1.6c-.058.078-.12.154-.177.232-.451.619.58,1.213,1.027.6.074-.1.154-.2.228-.3C166.327,252.4,163.648,256.437,161.083,255.107Zm14.671-9.421c-2.545.189-5.091.262-7.639.276q1.486-1.821,2.966-3.646,3.985.017,7.968.077Q177.376,244.014,175.755,245.686Z" transform="translate(969.863 7431.479)" fill="#333"/>
      <path id="Path_231" data-name="Path 231" d="M150.744,250.294c-.556-.525-1.4.314-.841.841a30.312,30.312,0,0,1,2.657,2.859c.484.594,1.321-.252.841-.841A30.313,30.313,0,0,0,150.744,250.294Z" transform="translate(968.07 7429.67)" fill="#333"/>
      <path id="Path_232" data-name="Path 232" d="M155.044,255.042a.6.6,0,0,0,0,1.189A.595.595,0,0,0,155.044,255.042Z" transform="translate(967.354 7428.93)" fill="#333"/>
    </g>
    <rect id="Rectangle_129" data-name="Rectangle 129" width="58" height="58" transform="translate(1096 7654)" fill="none"/>
  </g>
</svg>
