<svg xmlns="http://www.w3.org/2000/svg" width="58" height="58" viewBox="0 0 58 58">
  <g id="cold" transform="translate(-1504 -7654)">
    <g id="cold-2" data-name="cold" transform="translate(1463.639 7613.66)">
      <path id="Path_208" data-name="Path 208" d="M68.954,89.212c.667-.838,1.733-2.017,1.683-3.168-.055-1.309-1.268-2.683-2.169-3.543-2.085-1.988-5.661-.936-7.56.835-.9.913-1.665,1.839-1.51,3.2.136,1.195,1.068,3.682,2.1,4.4.894.62,3.036.525,4.06.48C67.139,91.343,68,90.4,68.954,89.212Zm-2.4-6.485c-.4.491-.784.989-1.185,1.476s-.92.913-1.334,1.4a5.464,5.464,0,0,0-1.085.03c-.737.049-1.477.073-2.212.147a3.568,3.568,0,0,1,.949-1.668A5.539,5.539,0,0,1,66.551,82.726ZM63.745,90.21a3.809,3.809,0,0,1-3.1-3.331c.952-.118,2.946-.557,3.593.14.765.824,1.072,2.128,1.726,3.055A4.308,4.308,0,0,1,63.745,90.21Zm3.2-.633c-.005-.009,0-.016-.011-.025-.742-1.031-1.107-2.416-1.95-3.374.377-.405.8-.771,1.157-1.2.479-.582.937-1.181,1.415-1.763.005-.006.006-.013.011-.02.041.028.084.052.124.082A5.722,5.722,0,0,1,69.5,85.883c.086.732-.6,1.563-.983,2.1A6.51,6.51,0,0,1,66.947,89.577Z" transform="translate(-1.3 -6.95)" fill="#333"/>
      <path id="Path_209" data-name="Path 209" d="M77.069,97.521c-2.06-.989-5.672-1.165-7.175.924a6.922,6.922,0,0,0-1.36,4.271c.213,1.287,1.557,2.1,2.568,2.791,1.239.848,2.391,1.521,3.9,1.106,1.015-.28,3.039-.777,3.736-1.654.807-1.012.949-3.687.7-4.9A3.841,3.841,0,0,0,77.069,97.521Zm-.554.948a3.426,3.426,0,0,1,1.35,1.337c-.659.14-1.312.318-1.966.477a6.179,6.179,0,0,0-1.159.321c-.54-.334-1.139-.58-1.675-.931s-1.076-.724-1.615-1.084A5.7,5.7,0,0,1,76.515,98.468Zm-6.907,4.056a5.628,5.628,0,0,1,1-3.189c.013.009.019.023.033.032.627.411,1.24.843,1.868,1.254.476.311,1,.539,1.493.82-.5,1.171-.438,2.576-.845,3.777a.366.366,0,0,0-.006.05,5.249,5.249,0,0,1-1.5-.71C71.077,104.161,69.776,103.369,69.609,102.524Zm7.405,2.156a4.519,4.519,0,0,1-2.783.781c.358-1.1.272-2.412.742-3.462.257-.574.881-.576,1.444-.715.621-.154,1.241-.323,1.869-.451A3.467,3.467,0,0,1,77.014,104.68Z" transform="translate(-3.27 -10.775)" fill="#333"/>
      <path id="Path_210" data-name="Path 210" d="M77.3,85.285a1.974,1.974,0,0,0,2.158-1.607,1.814,1.814,0,0,0-1.321-2.111.469.469,0,0,0-.277-.025,2.11,2.11,0,0,0-2.345,1.508A2.045,2.045,0,0,0,77.3,85.285Zm-.686-2.1c.169-.52.776-.583,1.25-.548.379.155.608.394.523.831a.868.868,0,0,1-.94.731C77,84.137,76.455,83.665,76.611,83.183Z" transform="translate(-4.777 -6.862)" fill="#333"/>
      <path id="Path_211" data-name="Path 211" d="M81.932,89.185a.473.473,0,0,0-.276-.025,2.111,2.111,0,0,0-2.346,1.508A2.046,2.046,0,0,0,81.1,92.9,1.975,1.975,0,0,0,83.254,91.3,1.816,1.816,0,0,0,81.932,89.185Zm.249,1.9a.867.867,0,0,1-.939.731c-.441-.06-.989-.532-.833-1.014.169-.52.775-.582,1.249-.548C82.038,90.408,82.268,90.648,82.182,91.084Z" transform="translate(-5.597 -8.686)" fill="#333"/>
      <path id="Path_212" data-name="Path 212" d="M63.851,99.368a.472.472,0,0,0-.276-.024,2.11,2.11,0,0,0-2.345,1.508,2.045,2.045,0,0,0,1.784,2.235,1.975,1.975,0,0,0,2.159-1.607A1.815,1.815,0,0,0,63.851,99.368Zm.249,1.9a.867.867,0,0,1-.939.731c-.441-.06-.989-.532-.833-1.014.169-.521.776-.583,1.249-.549C63.956,100.592,64.186,100.831,64.1,101.268Z" transform="translate(-1.692 -11.32)" fill="#333"/>
      <path id="Path_213" data-name="Path 213" d="M82.549,61.662a.564.564,0,0,0,.776,0c.652-.747,1.316-1.492,1.9-2.288a.529.529,0,0,0-.085-.647C83.373,56.7,78.1,49.365,75.79,54.884a47.864,47.864,0,0,0-1.647,6q-.355,1.318-.706,2.636c-6.507-.014-13.015-.172-19.525-.178a.553.553,0,0,0-.241.053.431.431,0,0,0-.307.48c.759,7.97,1.7,15.926,3.011,23.829q.513,3.1,1.108,6.188c.209,1.08.187,2.927.985,3.777.608.647,1.668.522,2.476.546,2.176.066,4.344.127,6.521.12,1.918-.008,3.835-.04,5.752-.056,1.08-.009,2.86.233,3.868-.277,2.139-1.082,1.881-5.178,2.2-7.163L83.65,64.079a.545.545,0,0,0-.529-.676c-1.813.057-3.628.086-5.442.1.458-1.722.953-3.433,1.509-5.127Q80.876,60.013,82.549,61.662ZM72.531,71.7c.54-2.38,1.138-4.747,1.759-7.107.658,0,1.315,0,1.972,0-.613,2.395-1.176,4.8-1.767,7.2C73.841,71.784,73.187,71.753,72.531,71.7Zm-1.1-.109c-1.44-.162-2.886-.4-4.333-.66a25.764,25.764,0,0,0-11.873.28q-.379-3.395-.71-6.795c6.216.016,12.429.158,18.643.175C72.548,66.917,71.96,69.247,71.431,71.591Zm7.637,13.822L78.23,90.56c-.26,1.591-.249,3.649-.839,5.147-.734,1.864-2.459,1.494-4.176,1.509-1.755.014-3.511.043-5.266.053-1.653.009-3.305,0-4.958-.041a10.755,10.755,0,0,1-2.566-.1c-1.525-.461-1.371-.942-1.608-2.116-.669-3.321-1.251-6.66-1.773-10.006-.66-4.23-1.21-8.474-1.7-12.724,5.429-1.536,10.047-.339,15.457.384a21.56,21.56,0,0,0,10.5-.976Zm3.411-20.927q-.488,3-.977,5.992a16.282,16.282,0,0,1-5.875,1.29c.588-2.395,1.153-4.8,1.77-7.19Q79.938,64.555,82.479,64.486Zm-5.937-.968q-.986.006-1.97.006.268-1.011.539-2.021c.517-1.924.738-4.7,1.792-6.435,1.379-2.271,3.019-.334,4.22.888.618.628,2.927,2.53,2.862,3.287-.033.388-.9.909-1.109,1.283-.026-.046-.045-.083-.081-.14-.79-1.242-2.4-2.354-3.469-3.382a.561.561,0,0,0-.917.236C77.7,59.308,77.1,61.408,76.542,63.519Z" transform="translate(0 0)" fill="#333"/>
      <path id="Path_214" data-name="Path 214" d="M56.378,71.928c.153.666.265,1.341.378,2.015.116.7,1.174.4,1.058-.292-.126-.758-.252-1.518-.436-2.265-.027-.111-.158-.389-.13-.495l-.066-.071.307-.024a7.372,7.372,0,0,1,1.275.062c.7.086.693-1.012,0-1.1-.768-.095-2.424-.344-2.633.751A3.7,3.7,0,0,0,56.378,71.928Z" transform="translate(-0.594 -4.031)" fill="#333"/>
      <path id="Path_215" data-name="Path 215" d="M61.519,71.067a.549.549,0,0,0,0-1.1A.549.549,0,0,0,61.519,71.067Z" transform="translate(-1.647 -4.071)" fill="#333"/>
    </g>
    <rect id="Rectangle_132" data-name="Rectangle 132" width="58" height="58" transform="translate(1504 7654)" fill="none"/>
  </g>
</svg>
