<svg xmlns="http://www.w3.org/2000/svg" width="58" height="58" viewBox="0 0 58 58">
  <g id="fish" transform="translate(-32 -0.2)">
    <g id="Group_185" data-name="Group 185" transform="translate(37 29.2)">
      <path id="Path_255" data-name="Path 255" d="M343.082,82.445c.783.524,1.563,1.052,2.349,1.573.661.438,1.266.683,1.808-.123a4.38,4.38,0,0,0,.579-1.381c.2-.8.5-2.4-.565-2.551a9.062,9.062,0,0,0-3.51.639c-.708.216-1.011-.892-.3-1.106a15.9,15.9,0,0,1,2.722-.588,3.891,3.891,0,0,1,2.037.022c1.152.563,1,2.522.806,3.531-.222,1.167-.9,2.916-2.224,3.2a2.255,2.255,0,0,1-1.76-.538c-.842-.556-1.678-1.124-2.517-1.686C341.892,83.027,342.466,82.032,343.082,82.445Z" transform="translate(-323.082 -66.94)" fill="#333"/>
      <path id="Path_256" data-name="Path 256" d="M361.557,76c1.292.033,1.65,1.381,1.554,2.44-.066.729-1.215.736-1.147,0,.032-.359.134-1.252-.423-1.292-.469-.034-.655.61-.687.969-.065.729-1.212.737-1.147,0C359.8,77.1,360.386,75.975,361.557,76Z" transform="translate(-351.383 -66.44)" fill="#333"/>
      <path id="Path_257" data-name="Path 257" d="M315.534,78.625a1.691,1.691,0,0,1,1.138-.125c2.176-6.577,7.407-11.938,14.361-13.2a.572.572,0,0,1,.17-.091c7.443-2.211,14.167-.059,20.3,4.445.3.224.437.8,0,.991a11.5,11.5,0,0,0-2.955,1.8c1.7,1.447,3.333,2.921,4.894,4.232,1.729-.661,2.988-1.947,4.534-2.934a8.231,8.231,0,0,1,4.206-1.315.5.5,0,0,1,.521.356.491.491,0,0,1-.116.624c-3.582,3.258-1.583,7.274.688,10.6a.475.475,0,0,1-.056.64.513.513,0,0,1-.44.223c-3.123,0-6.43-1.868-8.913-3.759a31.786,31.786,0,0,1-3.1,3.895.586.586,0,0,1,.12.119,12.035,12.035,0,0,0,1.52,1.893.583.583,0,0,1,.089.7c-3.648,5.782-12.642,6.042-18.635,4.759a.557.557,0,0,1-.12-.052,19.605,19.605,0,0,1-6.094-1.523.507.507,0,0,1-.1-.04l-.016-.007a28.528,28.528,0,0,1-11.554-9.175C315.313,80.783,314.31,79.527,315.534,78.625Zm32.187-6.977a13.438,13.438,0,0,1,2.369-1.59c-4.112-2.849-8.492-4.6-13.2-4.562,3.909.977,7.485,3.486,10.782,6.215A.5.5,0,0,1,347.721,71.648ZM343.98,91.561a14.588,14.588,0,0,0,5.682-2.334c1.924-1.438,1.331-1.9.315-3.4a22.816,22.816,0,0,1-10.408,6.113A23.232,23.232,0,0,0,343.98,91.561Zm-23.965-7.042a27.19,27.19,0,0,0,7.551,5.117,21.494,21.494,0,0,0,4.291-16.305c-.091-.731,1.057-.725,1.147,0a22.52,22.52,0,0,1-4.347,16.748c.632.242,1.27.465,1.917.643,9.523,2.61,17.638-2.985,22.662-10.724a.551.551,0,0,1,.643-.234.6.6,0,0,1,.117.044c.018.009.036.017.053.028a.529.529,0,0,1,.088.046c2.015,1.612,4.818,3.362,7.53,3.759-1.981-3.168-3.216-6.729-.993-9.807-2.651.781-4.5,3.156-7.189,4.056a.479.479,0,0,1-.541-.139c-.006,0-.011,0-.017-.009-3.093-2.573-6.183-5.157-9.428-7.539-3.164-2.322-6.459-4.305-10.549-4-7.256.543-12.883,5.817-15.141,12.514.053.01.107.02.144.024a38.863,38.863,0,0,0,4.391-.03.574.574,0,0,1,0,1.147c-.915.012-1.832.063-2.746.066a12.187,12.187,0,0,0-2.5-.143C315.619,80.534,319.321,83.859,320.015,84.519Z" transform="translate(-314.957 -64.335)" fill="#333"/>
      <path id="Path_258" data-name="Path 258" d="M357.046,68.213a.574.574,0,0,1,0,1.147,7.735,7.735,0,0,0-5.379,2.169c-.55.49-1.364-.319-.811-.811A9.02,9.02,0,0,1,357.046,68.213Z" transform="translate(-338.453 -65.034)" fill="#333"/>
      <path id="Path_259" data-name="Path 259" d="M348.1,69.7a.574.574,0,0,1,0-1.147A.574.574,0,0,1,348.1,69.7Z" transform="translate(-326.94 -65.095)" fill="#333"/>
    </g>
    <rect id="Rectangle_133" width="58" height="58" transform="translate(32 0.2)" fill="none"/>
  </g>
</svg>
