<svg xmlns="http://www.w3.org/2000/svg" width="58" height="58" viewBox="0 0 58 58">
  <g id="meat" transform="translate(1219 -6976)">
    <g id="Rectangle_134" transform="translate(-1219 6975.9)">
      <rect id="Rectangle_143" data-name="Rectangle 143" width="58" height="58" transform="translate(0 0.1)" fill="none"/>
    </g>
    <g id="Group_188" data-name="Group 188" transform="translate(-1343.157 6853.86)">
      <path id="Path_285" data-name="Path 285" d="M172.556,157.484a.491.491,0,0,0-.056-.189,6.789,6.789,0,0,0-4.4-4.97c-3.795-1.546-8.344-1.312-12.317-.788a50.358,50.358,0,0,0-11.794,2.8c-5.559,2.191-10.909,7.583-9.643,13.712a.46.46,0,0,0-.015.1c.224,4.245.983,8.955,5.363,10.828,4.777,2.044,9.456,1.169,14.052-.929a21.4,21.4,0,0,0,6.227-4.063c2.027-2.033,3.323-4.681,5.436-6.662,1.531-1.435,3.09-1.933,4.905-2.852a4.119,4.119,0,0,0,1.392-.965C173.126,161.886,172.734,159.443,172.556,157.484Zm-34.241,1.457c2.68-2.772,6.527-4.121,10.176-5.046a48.979,48.979,0,0,1,12.705-1.783,18.815,18.815,0,0,1,6.315.967c1.873.712,3.873,2.412,4.123,4.455h0a3.642,3.642,0,0,1-.4,2.133c-1.35,2.634-5.2,3.272-7.434,4.958-2.747,2.075-4.642,5.026-7.165,7.339-6.264,5.742-17,7.438-20.651-1.949a.387.387,0,0,0-.03-.048.462.462,0,0,0-.017-.063C134.122,166.138,135.526,161.826,138.315,158.94Zm31.245,4.849c-1.738.92-3.352,1.488-4.808,2.882a33.979,33.979,0,0,0-3.678,4.456,18.285,18.285,0,0,1-5.639,5.006c-3.755,2.231-8.6,3.888-12.949,2.8-2.821-.706-4.884-1.9-6.092-4.63a11.706,11.706,0,0,1-.867-3,10.047,10.047,0,0,0,5.321,5.537,13.627,13.627,0,0,0,9.568.042c7.328-2.572,10.537-10.124,17.327-13.434a10.361,10.361,0,0,0,3.991-2.889A3.818,3.818,0,0,1,169.561,163.789Z" transform="translate(0 0)" fill="#333"/>
      <path id="Path_286" data-name="Path 286" d="M138.47,168.829a.455.455,0,0,0,0,.067c1.1,5.711,6.482,7.412,11.759,6.416,2.922-.551,5.256-2.475,7.271-4.56a51.132,51.132,0,0,1,8.348-7.491c1.551-1.033,3.9-1.982,3.909-4.246a4.061,4.061,0,0,0-2.064-2.98c-1.84-.951-4.5-.846-6.514-.774a42.01,42.01,0,0,0-8.754,1.447c-6.141,1.529-14.772,3.963-13.972,12.065A.386.386,0,0,0,138.47,168.829Zm16.37-11.751c2.727-.643,13.083-2.808,13.766,1.737.294,1.955-1.65,2.643-3,3.5-1.111.708-2.15,1.547-3.2,2.335-2.315,1.735-4.078,4-6.123,6.019a12.526,12.526,0,0,1-8.828,4.013c-4.086.144-7.282-1.988-8.08-5.984C138.605,160.314,148.721,158.521,154.839,157.078Z" transform="translate(-1.438 -1.381)" fill="#333"/>
      <path id="Path_287" data-name="Path 287" d="M149.2,173.039a4.614,4.614,0,0,0,4.53-2.192,2.227,2.227,0,0,0-.17-2.329,2.624,2.624,0,0,0-1.86-.777.429.429,0,0,0-.059,0,.482.482,0,0,0-.064-.019c-1.63-.145-4.306.637-4.905,2.359C146.094,171.747,147.737,172.862,149.2,173.039Zm-.487-3.738a5,5,0,0,1,2.864-.651h.009a2.56,2.56,0,0,1,.848.165c1.145.6.408,1.852-.2,2.42a3.809,3.809,0,0,1-2.671.91C147.864,172.073,146.579,170.6,148.714,169.3Z" transform="translate(-4.2 -5.613)" fill="#333"/>
      <path id="Path_288" data-name="Path 288" d="M168.24,160.479a.463.463,0,0,0,0-.926A.463.463,0,0,0,168.24,160.479Z" transform="translate(-11.396 -2.85)" fill="#333"/>
      <path id="Path_289" data-name="Path 289" d="M170.611,159.274c1.624-.449,3.326-.823,4.843.138.5.32.969-.481.467-.8-1.726-1.094-3.691-.747-5.555-.231A.463.463,0,0,0,170.611,159.274Z" transform="translate(-12.157 -2.288)" fill="#333"/>
    </g>
  </g>
</svg>
