<svg xmlns="http://www.w3.org/2000/svg" width="58" height="58" viewBox="0 0 58 58">
  <g id="wine" transform="translate(-958 -7654)">
    <g id="wine-2" data-name="wine" transform="translate(733.166 7613.497)">
      <path id="Path_216" data-name="Path 216" d="M245.316,62.31q.336-2.238.636-4.481c.1-.714-1.028-.707-1.124,0q-.28,2.093-.6,4.183C244.126,62.719,245.209,63.024,245.316,62.31Z" transform="translate(-0.867 -1.054)" fill="#333"/>
      <path id="Path_217" data-name="Path 217" d="M245.948,55.8a.562.562,0,0,0,0-1.124A.562.562,0,0,0,245.948,55.8Z" transform="translate(-1.1 -0.537)" fill="#333"/>
      <path id="Path_218" data-name="Path 218" d="M252.751,92.008c.055-3.517.065-7.032-.006-10.552v0c13.075-1.3,10.106-19.844,6.9-29.05a.48.48,0,0,0-.524-.447,151.561,151.561,0,0,1-15.893.066.512.512,0,0,0-.081.014.487.487,0,0,0-.148.026l-.01,0a.473.473,0,0,0-.325.389c-1.245,6.433-3.721,13.825-2.118,20.425a11.182,11.182,0,0,0,8.957,8.476.637.637,0,0,0-.018.1c.072,3.544.061,7.082.006,10.624-1.8.024-10.093,0-9.643,3.519.353,2.758,7.489,2.742,9.291,2.846a37.158,37.158,0,0,0,8.549-.524c1.141-.2,4.311-.767,4.684-2.3C263.209,92.212,254.761,92.039,252.751,92.008Zm-9.09-38.792c5.017.193,10.039.244,15.052-.062A51.314,51.314,0,0,1,261.2,65.144a.554.554,0,0,0-.185.048c-4.125,2.035-7.342,1.636-11.64.745a15.853,15.853,0,0,0-8.044.55C241.626,62.012,242.793,57.582,243.66,53.216Zm-2.392,16.368c-.025-.617-.018-1.235,0-1.85a15.642,15.642,0,0,1,6.24-.918c1.809.161,3.533.828,5.321,1.116a13.949,13.949,0,0,0,8.442-1.577c.28,7.089-1.693,13.657-9.362,13.993C245.75,80.619,241.519,75.779,241.269,69.584ZM258.9,96.475a28.167,28.167,0,0,1-9.757.793c-2-.116-5.289-.034-7.079-1.144-1.886-1.17.649-1.992,1.84-2.28a25.228,25.228,0,0,1,5.576-.586c-.009.44-.007.879-.018,1.319a.562.562,0,1,0,1.124,0q.156-6.544.028-13.081.5.037,1.008.029.131,6.53-.028,13.051a.562.562,0,1,0,1.124,0c.011-.463.01-.926.018-1.389a25.81,25.81,0,0,1,5.623.614c.469.114,1.878.313,2.18.756C261.427,95.86,259.629,96.244,258.9,96.475Z" transform="translate(0)" fill="#333"/>
    </g>
    <rect id="Rectangle_128" data-name="Rectangle 128" width="58" height="58" transform="translate(958 7654)" fill="none"/>
  </g>
</svg>
